<svg id="visual" viewBox="0 0 2560 1372" width="2560" height="1372" xmlns="http://www.w3.org/2000/svg" xmlns:xlink="http://www.w3.org/1999/xlink" version="1.1"><path d="M1621 1372L1675 1339.3C1729 1306.7 1837 1241.3 1865.2 1176C1893.3 1110.7 1841.7 1045.3 1796.5 980C1751.3 914.7 1712.7 849.3 1714.5 784C1716.3 718.7 1758.7 653.3 1743.8 588C1729 522.7 1657 457.3 1650.5 392C1644 326.7 1703 261.3 1710.7 196C1718.3 130.7 1674.7 65.3 1652.8 32.7L1631 0L2560 0L2560 32.7C2560 65.3 2560 130.7 2560 196C2560 261.3 2560 326.7 2560 392C2560 457.3 2560 522.7 2560 588C2560 653.3 2560 718.7 2560 784C2560 849.3 2560 914.7 2560 980C2560 1045.3 2560 1110.7 2560 1176C2560 1241.3 2560 1306.7 2560 1339.3L2560 1372Z" fill="#fa7268"></path><path d="M2038 1372L2014.2 1339.3C1990.3 1306.7 1942.7 1241.3 1936.5 1176C1930.3 1110.7 1965.7 1045.3 1962.8 980C1960 914.7 1919 849.3 1904.3 784C1889.7 718.7 1901.3 653.3 1903.2 588C1905 522.7 1897 457.3 1919.2 392C1941.3 326.7 1993.7 261.3 2010 196C2026.3 130.7 2006.7 65.3 1996.8 32.7L1987 0L2560 0L2560 32.7C2560 65.3 2560 130.7 2560 196C2560 261.3 2560 326.7 2560 392C2560 457.3 2560 522.7 2560 588C2560 653.3 2560 718.7 2560 784C2560 849.3 2560 914.7 2560 980C2560 1045.3 2560 1110.7 2560 1176C2560 1241.3 2560 1306.7 2560 1339.3L2560 1372Z" fill="#e34c67"></path><path d="M2131 1372L2137.3 1339.3C2143.7 1306.7 2156.3 1241.3 2154 1176C2151.7 1110.7 2134.3 1045.3 2152.3 980C2170.3 914.7 2223.7 849.3 2248.8 784C2274 718.7 2271 653.3 2252.5 588C2234 522.7 2200 457.3 2186.8 392C2173.7 326.7 2181.3 261.3 2216.8 196C2252.3 130.7 2315.7 65.3 2347.3 32.7L2379 0L2560 0L2560 32.7C2560 65.3 2560 130.7 2560 196C2560 261.3 2560 326.7 2560 392C2560 457.3 2560 522.7 2560 588C2560 653.3 2560 718.7 2560 784C2560 849.3 2560 914.7 2560 980C2560 1045.3 2560 1110.7 2560 1176C2560 1241.3 2560 1306.7 2560 1339.3L2560 1372Z" fill="#c62368"></path></svg>