<svg id="visual" viewBox="0 0 1920 1080" width="1920" height="1080" xmlns="http://www.w3.org/2000/svg" xmlns:xlink="http://www.w3.org/1999/xlink" version="1.1"><path d="M659 0L653 25.7C647 51.3 635 102.7 649.8 154.2C664.7 205.7 706.3 257.3 707.7 308.8C709 360.3 670 411.7 644.3 463C618.7 514.3 606.3 565.7 592.5 617C578.7 668.3 563.3 719.7 566 771.2C568.7 822.7 589.3 874.3 610.2 925.8C631 977.3 652 1028.7 662.5 1054.3L673 1080L0 1080L0 1054.3C0 1028.7 0 977.3 0 925.8C0 874.3 0 822.7 0 771.2C0 719.7 0 668.3 0 617C0 565.7 0 514.3 0 463C0 411.7 0 360.3 0 308.8C0 257.3 0 205.7 0 154.2C0 102.7 0 51.3 0 25.7L0 0Z" fill="#fa7268"></path><path d="M426 0L429 25.7C432 51.3 438 102.7 450.8 154.2C463.7 205.7 483.3 257.3 516.3 308.8C549.3 360.3 595.7 411.7 601.7 463C607.7 514.3 573.3 565.7 545.8 617C518.3 668.3 497.7 719.7 499.8 771.2C502 822.7 527 874.3 547.8 925.8C568.7 977.3 585.3 1028.7 593.7 1054.3L602 1080L0 1080L0 1054.3C0 1028.7 0 977.3 0 925.8C0 874.3 0 822.7 0 771.2C0 719.7 0 668.3 0 617C0 565.7 0 514.3 0 463C0 411.7 0 360.3 0 308.8C0 257.3 0 205.7 0 154.2C0 102.7 0 51.3 0 25.7L0 0Z" fill="#ef5f67"></path><path d="M355 0L356.3 25.7C357.7 51.3 360.3 102.7 378.5 154.2C396.7 205.7 430.3 257.3 423 308.8C415.7 360.3 367.3 411.7 371.5 463C375.7 514.3 432.3 565.7 435.8 617C439.3 668.3 389.7 719.7 371.5 771.2C353.3 822.7 366.7 874.3 357.5 925.8C348.3 977.3 316.7 1028.7 300.8 1054.3L285 1080L0 1080L0 1054.3C0 1028.7 0 977.3 0 925.8C0 874.3 0 822.7 0 771.2C0 719.7 0 668.3 0 617C0 565.7 0 514.3 0 463C0 411.7 0 360.3 0 308.8C0 257.3 0 205.7 0 154.2C0 102.7 0 51.3 0 25.7L0 0Z" fill="#e34c67"></path><path d="M362 0L350.7 25.7C339.3 51.3 316.7 102.7 307.2 154.2C297.7 205.7 301.3 257.3 314 308.8C326.7 360.3 348.3 411.7 329.8 463C311.3 514.3 252.7 565.7 232 617C211.3 668.3 228.7 719.7 252.3 771.2C276 822.7 306 874.3 305.2 925.8C304.3 977.3 272.7 1028.7 256.8 1054.3L241 1080L0 1080L0 1054.3C0 1028.7 0 977.3 0 925.8C0 874.3 0 822.7 0 771.2C0 719.7 0 668.3 0 617C0 565.7 0 514.3 0 463C0 411.7 0 360.3 0 308.8C0 257.3 0 205.7 0 154.2C0 102.7 0 51.3 0 25.7L0 0Z" fill="#d53867"></path><path d="M82 0L87.5 25.7C93 51.3 104 102.7 116.5 154.2C129 205.7 143 257.3 150.7 308.8C158.3 360.3 159.7 411.7 158.3 463C157 514.3 153 565.7 166 617C179 668.3 209 719.7 202.5 771.2C196 822.7 153 874.3 144.7 925.8C136.3 977.3 162.7 1028.7 175.8 1054.3L189 1080L0 1080L0 1054.3C0 1028.7 0 977.3 0 925.8C0 874.3 0 822.7 0 771.2C0 719.7 0 668.3 0 617C0 565.7 0 514.3 0 463C0 411.7 0 360.3 0 308.8C0 257.3 0 205.7 0 154.2C0 102.7 0 51.3 0 25.7L0 0Z" fill="#c62368"></path></svg>