<svg width="153" height="98" viewBox="0 0 153 98" fill="none" xmlns="http://www.w3.org/2000/svg">
<g clip-path="url(#clip0_251_137)">
<path d="M111.352 7.44764H10.9759C10.874 7.44547 10.7769 7.4034 10.7056 7.33047C10.6343 7.25753 10.5944 7.15953 10.5944 7.05747C10.5944 6.9554 10.6343 6.8574 10.7056 6.78447C10.7769 6.71153 10.874 6.66947 10.9759 6.6673H111.352C111.454 6.66947 111.551 6.71153 111.622 6.78447C111.693 6.8574 111.733 6.9554 111.733 7.05747C111.733 7.15953 111.693 7.25753 111.622 7.33047C111.551 7.4034 111.454 7.44547 111.352 7.44764Z" fill="#CACACA"/>
<path d="M17.647 4.67513C18.9085 4.67513 19.931 3.62857 19.931 2.33757C19.931 1.04656 18.9085 0 17.647 0C16.3856 0 15.363 1.04656 15.363 2.33757C15.363 3.62857 16.3856 4.67513 17.647 4.67513Z" fill="#3F3D56"/>
<path d="M25.5372 4.67513C26.7987 4.67513 27.8212 3.62857 27.8212 2.33757C27.8212 1.04656 26.7987 0 25.5372 0C24.2758 0 23.2532 1.04656 23.2532 2.33757C23.2532 3.62857 24.2758 4.67513 25.5372 4.67513Z" fill="#3F3D56"/>
<path d="M33.4274 4.67513C34.6889 4.67513 35.7114 3.62857 35.7114 2.33757C35.7114 1.04656 34.6889 0 33.4274 0C32.166 0 31.1434 1.04656 31.1434 2.33757C31.1434 3.62857 32.166 4.67513 33.4274 4.67513Z" fill="#3F3D56"/>
<path d="M106.601 0.579407H100.996C100.885 0.581621 100.78 0.62736 100.702 0.706797C100.624 0.786234 100.58 0.893037 100.58 1.00428C100.58 1.11551 100.624 1.22232 100.702 1.30176C100.78 1.38119 100.885 1.42693 100.996 1.42914H106.601C106.712 1.42693 106.818 1.38119 106.896 1.30176C106.974 1.22232 107.017 1.11551 107.017 1.00428C107.017 0.893037 106.974 0.786234 106.896 0.706797C106.818 0.62736 106.712 0.581621 106.601 0.579407Z" fill="#3F3D56"/>
<path d="M106.601 2.17419H100.996C100.885 2.17641 100.78 2.22215 100.702 2.30158C100.624 2.38102 100.58 2.48782 100.58 2.59906C100.58 2.7103 100.624 2.81711 100.702 2.89654C100.78 2.97598 100.885 3.02171 100.996 3.02393H106.601C106.712 3.02171 106.818 2.97598 106.896 2.89654C106.974 2.81711 107.017 2.7103 107.017 2.59906C107.017 2.48782 106.974 2.38102 106.896 2.30158C106.818 2.22215 106.712 2.17641 106.601 2.17419Z" fill="#3F3D56"/>
<path d="M106.601 3.76691H100.996C100.885 3.76912 100.78 3.81486 100.702 3.89429C100.624 3.97373 100.58 4.08053 100.58 4.19177C100.58 4.30301 100.624 4.40982 100.702 4.48925C100.78 4.56869 100.885 4.61443 100.996 4.61664H106.601C106.712 4.61443 106.818 4.56869 106.896 4.48925C106.974 4.40982 107.017 4.30301 107.017 4.19177C107.017 4.08053 106.974 3.97373 106.896 3.89429C106.818 3.81486 106.712 3.76912 106.601 3.76691Z" fill="#3F3D56"/>
<path d="M38.5791 78.2221L38.7166 28.5657C38.7205 27.5607 39.1225 26.5982 39.8343 25.8895C40.5462 25.1808 41.5097 24.7838 42.5136 24.7854L79.9725 24.8894C80.9764 24.8933 81.9377 25.2957 82.6456 26.0084C83.3535 26.721 83.7501 27.6857 83.7485 28.6907L83.611 78.3471C83.6071 79.3522 83.2051 80.3146 82.4933 81.0233C81.7814 81.732 80.8179 82.1291 79.814 82.1275L42.3551 82.0235C41.3512 82.0196 40.3899 81.6171 39.682 80.9045C38.9741 80.1918 38.5775 79.2272 38.5791 78.2221Z" fill="#E6E6E6"/>
<path d="M41.494 63.2318L41.5824 31.3081C41.586 30.3669 41.9625 29.4655 42.6291 28.8018C43.2958 28.1381 44.1982 27.7662 45.1384 27.7678L77.3311 27.8571C78.2713 27.8608 79.1717 28.2376 79.8347 28.9051C80.4977 29.5725 80.8692 30.4759 80.8677 31.4172L80.7453 75.6047C80.7416 76.5459 80.3651 77.4473 79.6984 78.111C79.0318 78.7748 78.1293 79.1466 77.1891 79.145L57.2464 79.0897C53.0585 79.0734 49.048 77.3946 46.0949 74.4217C43.1417 71.4488 41.4871 67.4245 41.494 63.2318Z" fill="white"/>
<path d="M73.7148 52.6886H48.6128C48.2133 52.6886 47.8302 52.5297 47.5478 52.247C47.2653 51.9642 47.1066 51.5807 47.1066 51.1808C47.1066 50.7809 47.2653 50.3973 47.5478 50.1146C47.8302 49.8318 48.2133 49.6729 48.6128 49.6729H73.7148C74.1143 49.6729 74.4974 49.8318 74.7798 50.1146C75.0623 50.3973 75.221 50.7809 75.221 51.1808C75.221 51.5807 75.0623 51.9642 74.7798 52.247C74.4974 52.5297 74.1143 52.6886 73.7148 52.6886Z" fill="#4E7BF0"/>
<path d="M54.1352 44.4195H48.6128C48.2133 44.4195 47.8302 44.2606 47.5478 43.9779C47.2653 43.6951 47.1066 43.3116 47.1066 42.9117C47.1066 42.5117 47.2653 42.1282 47.5478 41.8454C47.8302 41.5627 48.2133 41.4038 48.6128 41.4038H54.1352C54.5347 41.4038 54.9177 41.5627 55.2002 41.8454C55.4827 42.1282 55.6413 42.5117 55.6413 42.9117C55.6413 43.3116 55.4827 43.6951 55.2002 43.9779C54.9177 44.2606 54.5347 44.4195 54.1352 44.4195Z" fill="#4E7BF0"/>
<path d="M73.7148 65.9464H48.6128C48.2133 65.9464 47.8302 65.7875 47.5478 65.5047C47.2653 65.2219 47.1066 64.8384 47.1066 64.4385C47.1066 64.0386 47.2653 63.6551 47.5478 63.3723C47.8302 63.0895 48.2133 62.9307 48.6128 62.9307H73.7148C74.1143 62.9307 74.4974 63.0895 74.7798 63.3723C75.0623 63.6551 75.221 64.0386 75.221 64.4385C75.221 64.8384 75.0623 65.2219 74.7798 65.5047C74.4974 65.7875 74.1143 65.9464 73.7148 65.9464Z" fill="#4E7BF0"/>
<path d="M73.7148 59.3175H48.6128C48.2133 59.3175 47.8302 59.1586 47.5478 58.8759C47.2653 58.5931 47.1066 58.2096 47.1066 57.8097C47.1066 57.4098 47.2653 57.0262 47.5478 56.7435C47.8302 56.4607 48.2133 56.3018 48.6128 56.3018H73.7148C74.1143 56.3018 74.4974 56.4607 74.7798 56.7435C75.0623 57.0262 75.221 57.4098 75.221 57.8097C75.221 58.2096 75.0623 58.5931 74.7798 58.8759C74.4974 59.1586 74.1143 59.3175 73.7148 59.3175Z" fill="#4E7BF0"/>
<path d="M5.99287 98C9.30264 98 11.9857 95.3139 11.9857 92.0003C11.9857 88.6868 9.30264 86.0006 5.99287 86.0006C2.6831 86.0006 0 88.6868 0 92.0003C0 95.3139 2.6831 98 5.99287 98Z" fill="#4E7BF0"/>
<path d="M5.17531 95.1229C5.07182 95.1229 4.96976 95.0987 4.8772 95.0524C4.78464 95.0061 4.70414 94.9388 4.64206 94.8559L3.00712 92.6734C2.95448 92.6033 2.91616 92.5235 2.89435 92.4386C2.87253 92.3536 2.86766 92.2652 2.88 92.1784C2.89234 92.0915 2.92166 92.008 2.96628 91.9325C3.01089 91.857 3.06993 91.7911 3.14001 91.7385C3.2101 91.6859 3.28986 91.6476 3.37473 91.6259C3.4596 91.6041 3.54792 91.5993 3.63463 91.6118C3.72135 91.6242 3.80476 91.6537 3.8801 91.6984C3.95545 91.7432 4.02124 91.8024 4.07372 91.8726L5.14335 93.3003L7.89058 89.1748C7.98873 89.0277 8.1412 88.9256 8.31448 88.891C8.48777 88.8564 8.66769 88.8921 8.81471 88.9902C8.96173 89.0883 9.06383 89.2409 9.09856 89.4143C9.13329 89.5878 9.09781 89.7679 8.99993 89.9152L5.73003 94.8257C5.67088 94.9145 5.59132 94.9878 5.49803 95.0395C5.40474 95.0911 5.30043 95.1197 5.19386 95.1227C5.18767 95.1228 5.18148 95.1229 5.17531 95.1229Z" fill="white"/>
<path d="M6.04632 78.8538H5.61487V80.1496H6.04632V78.8538Z" fill="#2F2E41"/>
<path d="M6.04632 76.3796H5.61487V73.9054H6.04632V76.3796ZM6.04632 71.431H5.61487V68.9568H6.04632V71.431ZM6.04632 66.4826H5.61487V64.0082H6.04632V66.4826ZM6.04632 61.534H5.61487V59.0598H6.04632V61.534ZM6.04632 56.5854H5.61487V54.1112H6.04632V56.5854Z" fill="#2F2E41"/>
<path d="M6.04638 51.6371H5.61493V50.1252H7.12501V50.5572H6.04638V51.6371Z" fill="#2F2E41"/>
<path d="M27.49 50.5572H24.9444V50.1252H27.49V50.5572ZM22.3988 50.5572H19.8531V50.1252H22.3988V50.5572ZM17.3075 50.5572H14.7619V50.1252H17.3075V50.5572ZM12.2162 50.5572H9.67059V50.1252H12.2162V50.5572Z" fill="#2F2E41"/>
<path d="M31.3301 50.1252H30.0357V50.5572H31.3301V50.1252Z" fill="#2F2E41"/>
<path d="M144.826 65.8201H144.394V67.116H144.826V65.8201Z" fill="#2F2E41"/>
<path d="M144.826 62.9836H144.394V60.147H144.826V62.9836ZM144.826 57.3103H144.394V54.4738H144.826V57.3103Z" fill="#2F2E41"/>
<path d="M144.826 51.6371H144.394V50.5572H143.315V50.1252H144.826V51.6371Z" fill="#2F2E41"/>
<path d="M140.634 50.5572H137.952V50.1252H140.634V50.5572ZM135.27 50.5572H132.588V50.1252H135.27V50.5572ZM129.906 50.5572H127.224V50.1252H129.906V50.5572ZM124.543 50.5572H121.861V50.1252H124.543V50.5572ZM119.179 50.5572H116.497V50.1252H119.179L119.179 50.5572ZM113.815 50.5572H111.133V50.1252H113.815V50.5572ZM108.451 50.5572H105.77V50.1252H108.451V50.5572ZM103.088 50.5572H100.406V50.1252H103.088V50.5572ZM97.724 50.5572H95.0422V50.1252H97.724V50.5572Z" fill="#2F2E41"/>
<path d="M92.3603 50.1252H91.066V50.5572H92.3603V50.1252Z" fill="#2F2E41"/>
<path d="M144.745 82.8819C148.055 82.8819 150.738 80.1958 150.738 76.8822C150.738 73.5687 148.055 70.8825 144.745 70.8825C141.436 70.8825 138.753 73.5687 138.753 76.8822C138.753 80.1958 141.436 82.8819 144.745 82.8819Z" fill="#4E7BF0"/>
<path d="M145.924 76.8822L147.103 75.7019C147.259 75.5453 147.346 75.3332 147.346 75.1121C147.346 74.8911 147.258 74.6792 147.102 74.5229C146.946 74.3666 146.734 74.2787 146.513 74.2784C146.293 74.2782 146.081 74.3657 145.924 74.5216L144.745 75.7019L143.566 74.5216C143.41 74.3657 143.198 74.2782 142.977 74.2784C142.757 74.2787 142.545 74.3666 142.389 74.5229C142.233 74.6792 142.145 74.8911 142.145 75.1121C142.144 75.3332 142.232 75.5453 142.388 75.7019L143.566 76.8822L142.388 78.0625C142.31 78.1399 142.248 78.2319 142.206 78.3333C142.163 78.4347 142.142 78.5434 142.141 78.6532C142.141 78.763 142.163 78.8718 142.205 78.9734C142.247 79.0749 142.308 79.1671 142.386 79.2448C142.463 79.3224 142.555 79.384 142.657 79.4259C142.758 79.4679 142.867 79.4894 142.976 79.4892C143.086 79.489 143.195 79.4672 143.296 79.4249C143.397 79.3826 143.489 79.3207 143.566 79.2428L144.745 78.0625L145.924 79.2428C146.002 79.3207 146.094 79.3826 146.195 79.4249C146.296 79.4672 146.405 79.489 146.514 79.4892C146.624 79.4894 146.733 79.4679 146.834 79.4259C146.936 79.384 147.028 79.3224 147.105 79.2448C147.183 79.1671 147.244 79.0749 147.286 78.9734C147.328 78.8718 147.35 78.763 147.349 78.6532C147.349 78.5434 147.327 78.4347 147.285 78.3333C147.243 78.2319 147.181 78.1399 147.103 78.0625L145.924 76.8822Z" fill="white"/>
<path d="M127.931 40.9833L129.225 48.675L141.522 42.0632L127.931 40.9833Z" fill="#2F2E41"/>
<path d="M126.462 88.8087L123.886 88.7035L123.065 78.7066L126.867 78.8619L126.462 88.8087Z" fill="#FFB6B6"/>
<path d="M126.637 60.2048C131.309 58.7787 132.268 52.6811 134.834 51.35C134.828 48.1296 134.957 38.1428 131.746 38.333C129.958 38.4389 119.994 56.6972 119.567 59.7222C118.775 65.3344 123.005 79.6584 122.514 80.6425L127.427 80.9537L127.456 80.5666C127.534 79.5165 128.317 76.3502 127.424 75.7944L127.085 75.5838C127.088 74.492 127.326 72.632 126.343 72.1605C126.33 72.1545 126.319 72.1459 126.31 72.1353C126.301 72.1248 126.294 72.1124 126.29 72.0991C126.287 72.0858 126.285 72.0718 126.287 72.0581C126.289 72.0443 126.294 72.0311 126.301 72.0193L126.637 60.2048Z" fill="#2F2E41"/>
<path d="M127.789 91.0455L126.067 91.1472L125.663 89.5371L124.972 91.2118L120.403 91.4815C120.184 91.4944 119.966 91.4369 119.782 91.3174C119.598 91.1979 119.457 91.0226 119.38 90.8172C119.302 90.6117 119.292 90.3868 119.352 90.1753C119.411 89.9638 119.536 89.7769 119.709 89.6416L123.209 86.9037L123.112 85.2576L126.963 85.2604L127.789 91.0455Z" fill="#2F2E41"/>
<path d="M146.096 70.7914L148.666 70.9998L150.691 61.1765L146.899 60.8688L146.096 70.7914Z" fill="#FFB6B6"/>
<path d="M145.089 45.896C142.784 49.9506 138.661 50.9186 134.386 51.628C132.527 48.9997 129.694 45.3355 132.421 43.6274C133.94 42.6762 147.104 34.981 149.137 37.2599C154.442 43.2097 150.657 62.3559 150.983 61.9326L146.78 61.8715L146.533 61.5726C146.204 61.1749 145.989 60.6945 145.913 60.1835C145.837 59.6725 145.903 59.1504 146.102 58.6739L146.256 58.3058C145.945 57.8707 145.764 57.3563 145.733 56.8222C145.702 56.2882 145.824 55.7563 146.083 55.2884L146.136 55.1923L145.089 45.896Z" fill="#2F2E41"/>
<path d="M146.029 67.2085L149.852 67.6734L149.556 69.2955L152.698 72.4384C152.853 72.5936 152.955 72.7944 152.988 73.0115C153.021 73.2286 152.984 73.4506 152.882 73.6451C152.781 73.8397 152.619 73.9965 152.422 74.0928C152.225 74.1891 152.002 74.2197 151.786 74.1803L147.284 73.3578L146.801 71.6115L146.205 73.1606L144.508 72.8505L146.029 67.2085Z" fill="#2F2E41"/>
<path d="M136.04 13.5548H134.276C133.916 13.5548 133.561 13.6422 133.242 13.8096C132.923 13.977 132.649 14.2193 132.444 14.5158L131.167 16.3625L127.985 16.9418C126.88 17.6252 126.047 18.673 125.63 19.9049C125.214 21.1367 125.239 22.4755 125.702 23.6906C127.954 29.5862 129.041 40.6364 126.852 45.5187C126.852 45.5187 140.129 46.7227 143.463 42.7111C146.798 38.6994 144.111 19.1701 144.111 19.1701L139.149 16.3625L137.872 14.5158C137.667 14.2193 137.393 13.977 137.074 13.8096C136.755 13.6422 136.4 13.5548 136.04 13.5548Z" fill="#4E7BF0"/>
<path d="M144.268 48.0613C144.417 47.9039 144.53 47.7157 144.599 47.5098C144.668 47.3039 144.69 47.0855 144.666 46.8698C144.641 46.6542 144.569 46.4466 144.456 46.2617C144.342 46.0768 144.19 45.919 144.009 45.7996L146.915 36.2319L143.679 34.2881L141.883 46.3033C141.703 46.621 141.645 46.9939 141.721 47.3514C141.797 47.7088 142.002 48.0259 142.296 48.2426C142.589 48.4593 142.953 48.5606 143.316 48.5272C143.68 48.4938 144.018 48.328 144.268 48.0613Z" fill="#FFB6B6"/>
<path d="M147.131 37.3118L143.248 35.8L143.413 33.859L138.8 23.748C138.572 23.2482 138.456 22.7043 138.462 22.1548C138.467 21.6054 138.594 21.0639 138.832 20.5688C139.07 20.0738 139.414 19.6372 139.839 19.2902C140.265 18.9432 140.762 18.6943 141.294 18.561C142.256 18.3215 143.274 18.4737 144.124 18.9844C144.974 19.4951 145.587 20.3225 145.828 21.2851L148.86 33.432C149.211 35.3173 148.814 36.7254 147.131 37.3118Z" fill="#4E7BF0"/>
<path d="M141.759 7.66955C141.759 5.91966 141.065 4.24145 139.829 3.00409C138.593 1.76673 136.917 1.07159 135.169 1.07159C133.421 1.07159 131.744 1.76673 130.509 3.00409C129.273 4.24145 128.578 5.91966 128.578 7.66955V11.8054C128.579 12.0402 128.672 12.2652 128.838 12.4312C129.003 12.5972 129.228 12.6906 129.463 12.6909H129.625C129.811 12.155 129.925 11.5964 129.963 11.0301C130.304 11.5406 130.563 12.1008 130.731 12.6909H140.872C141.107 12.6907 141.332 12.5974 141.498 12.4314C141.665 12.2655 141.758 12.0404 141.759 11.8054C142.292 10.7169 142.531 9.4686 141.759 7.66955Z" fill="#2F2E41"/>
<path d="M134.903 12.6502C137.572 12.6502 139.735 10.4845 139.735 7.81296C139.735 5.14146 137.572 2.97577 134.903 2.97577C132.235 2.97577 130.071 5.14146 130.071 7.81296C130.071 10.4845 132.235 12.6502 134.903 12.6502Z" fill="#FFB8B8"/>
<path d="M129.939 7.79433C129.893 7.74098 129.858 7.67832 129.839 7.6106C129.819 7.54287 129.814 7.47166 129.824 7.40179L130.396 3.4117C130.407 3.33051 130.439 3.25343 130.487 3.18744C130.536 3.12146 130.6 3.06864 130.674 3.03377C133.596 1.66496 136.558 1.66322 139.48 3.02858C139.557 3.06536 139.624 3.12165 139.673 3.19194C139.722 3.26223 139.752 3.34412 139.761 3.42959L140.358 6.56098C140.365 6.62928 140.357 6.69818 140.335 6.76329C140.314 6.82839 140.279 6.88827 140.233 6.9391C140.14 7.04142 140.01 9.29152 139.871 9.29152C139.988 7.95037 139.706 7.30869 138.684 7.96415C138.591 7.96393 138.499 7.93711 138.42 7.88682C138.341 7.83653 138.278 7.76483 138.238 7.68008L137.82 6.78306C137.793 6.72497 137.748 6.67727 137.691 6.64716C137.635 6.61705 137.57 6.60615 137.507 6.61611C137.444 6.62608 137.385 6.65637 137.341 6.70241C137.296 6.74845 137.268 6.80774 137.26 6.87134L137.177 7.53276C137.162 7.65179 137.105 7.76128 137.015 7.84069C136.925 7.92011 136.809 7.964 136.689 7.96415C134.982 8.81231 132.743 8.58405 130.31 7.96415C130.24 7.96416 130.17 7.94901 130.106 7.9197C130.042 7.8904 129.985 7.84765 129.939 7.79433Z" fill="#2F2E41"/>
<path d="M138.756 34.7072H130.837C130.566 34.7069 130.306 34.5989 130.114 34.407C129.922 34.215 129.814 33.9547 129.814 33.6832V25.1614C129.814 24.8899 129.922 24.6297 130.114 24.4377C130.306 24.2457 130.566 24.1378 130.837 24.1375H138.756C139.027 24.1378 139.287 24.2457 139.479 24.4377C139.671 24.6297 139.778 24.8899 139.779 25.1614V33.6832C139.778 33.9547 139.671 34.215 139.479 34.407C139.287 34.5989 139.027 34.7069 138.756 34.7072Z" fill="#3F3D56"/>
<path d="M131.06 25.9783C131.387 25.9783 131.653 25.7124 131.653 25.3845C131.653 25.0565 131.387 24.7906 131.06 24.7906C130.732 24.7906 130.467 25.0565 130.467 25.3845C130.467 25.7124 130.732 25.9783 131.06 25.9783Z" fill="#E6E6E6"/>
<path d="M131.06 25.7407C131.256 25.7407 131.416 25.5812 131.416 25.3844C131.416 25.1876 131.256 25.0281 131.06 25.0281C130.863 25.0281 130.704 25.1876 130.704 25.3844C130.704 25.5812 130.863 25.7407 131.06 25.7407Z" fill="#3F3D56"/>
<path d="M140.161 28.9637C139.985 29.1594 139.768 29.3141 139.526 29.4168C139.284 29.5196 139.022 29.568 138.759 29.5586C138.496 29.5491 138.239 29.4821 138.004 29.3622C137.77 29.2423 137.565 29.0725 137.404 28.8647L130.304 30.8326L129.225 28.4569L137.81 26.2436C138.177 25.995 138.622 25.8898 139.061 25.9478C139.5 26.0059 139.903 26.2231 140.192 26.5584C140.482 26.8937 140.639 27.3237 140.633 27.767C140.627 28.2103 140.459 28.6361 140.161 28.9637Z" fill="#FFB8B8"/>
<path d="M131.147 30.8938L129.155 31.5304C126.989 33.822 126.222 32.1592 123.669 31.9871C123.189 31.9547 122.813 31.5599 122.551 30.8138C122.196 29.7646 122.232 28.6222 122.651 27.5971L126.198 18.6982L127.683 17.4806L129.755 19.9673L128.164 26.8037L130.776 28.1368L131.147 30.8938Z" fill="#4E7BF0"/>
</g>
<defs>
<clipPath id="clip0_251_137">
<rect width="153" height="98" fill="white"/>
</clipPath>
</defs>
</svg>
